<?xml version="1.0" encoding="UTF-8" standalone="no"?>
<svg
   xmlns:dc="http://purl.org/dc/elements/1.1/"
   xmlns:cc="http://creativecommons.org/ns#"
   xmlns:rdf="http://www.w3.org/1999/02/22-rdf-syntax-ns#"
   xmlns:svg="http://www.w3.org/2000/svg"
   xmlns="http://www.w3.org/2000/svg"
   xmlns:sodipodi="http://sodipodi.sourceforge.net/DTD/sodipodi-0.dtd"
   xmlns:inkscape="http://www.inkscape.org/namespaces/inkscape"
   id="Signature"
   viewBox="0 0 306.89002 60.520001"
   version="1.1"
   sodipodi:docname="signature_purple.svg"
   width="306.89001"
   height="60.52"
   inkscape:version="0.92.3 (2405546, 2018-03-11)">
  <metadata
     id="metadata35">
    <rdf:RDF>
      <cc:Work
         rdf:about="">
        <dc:format>image/svg+xml</dc:format>
        <dc:type
           rdf:resource="http://purl.org/dc/dcmitype/StillImage" />
        <dc:title></dc:title>
      </cc:Work>
    </rdf:RDF>
  </metadata>
  <sodipodi:namedview
     pagecolor="#ffffff"
     bordercolor="#666666"
     borderopacity="1"
     objecttolerance="10"
     gridtolerance="10"
     guidetolerance="10"
     inkscape:pageopacity="0"
     inkscape:pageshadow="2"
     inkscape:window-width="1920"
     inkscape:window-height="1052"
     id="namedview33"
     showgrid="false"
     inkscape:zoom="2.4758253"
     inkscape:cx="191.355"
     inkscape:cy="113.58671"
     inkscape:window-x="1600"
     inkscape:window-y="0"
     inkscape:window-maximized="1"
     inkscape:current-layer="Signature" />
  <defs
     id="defs4">
    <style
       id="style2">.cls-1{fill:#9088ff;}.cls-2{fill:#fff;}</style>
  </defs>
  <g
     id="g855"
     transform="translate(-37.809993,36.139999)">
    <rect
       style="fill:#9088ff"
       id="rect6"
       height="60.5"
       width="278.03"
       y="-36.119999"
       x="37.810001"
       class="cls-1" />
    <path
       style="fill:#ffffff"
       inkscape:connector-curvature="0"
       id="path8"
       d="m 70.13,-14.059999 a 6.58,6.58 0 0 1 5,2 7.44,7.44 0 0 1 1.87,5.3500002 v 10.93 h -3.87 v -10.54 a 4.17,4.17 0 0 0 -1.07,-3.07 4,4 0 0 0 -2.93,-1.0700002 4.38,4.38 0 0 0 -3.28,1.2700002 5.31,5.31 0 0 0 -1.25,3.87 v 9.54 H 60.75 V -13.599999 h 3.85 v 2.28 a 6.08,6.08 0 0 1 5.53,-2.74 z"
       class="cls-2" />
    <path
       style="fill:#ffffff"
       inkscape:connector-curvature="0"
       id="path10"
       d="m 90.68,4.7000012 a 9.12,9.12 0 0 1 -6.68,-2.71 9.46,9.46 0 0 1 0,-13.3400002 9.44,9.44 0 1 1 6.67,16.0500002 z m -4,-5.34999998 a 5.68,5.68 0 0 0 7.92,0 5.88,5.88 0 0 0 0,-8.06000002 5.68,5.68 0 0 0 -7.92,0 5.85,5.85 0 0 0 0,8.06000002 z"
       class="cls-2" />
    <path
       style="fill:#ffffff"
       inkscape:connector-curvature="0"
       id="path12"
       d="m 124.56,-13.599999 h 4.07 L 123,4.2200012 h -3.78 l -3.78,-12.18 -3.75,12.18 h -4.09 l -5.19,-17.8400002 h 4.08 l 3.45,12.3100002 3.74,-12.3100002 h 3.7 l 3.7,12.3000002 z"
       class="cls-2" />
    <path
       style="fill:#ffffff"
       inkscape:connector-curvature="0"
       id="path14"
       d="m 151.64,-13.599999 h 4.1 l -6.85,18.4100002 q -2.56,6.9099998 -8.7,6.5599998 V 7.7700012 a 4.17,4.17 0 0 0 2.92,-0.77 6.14,6.14 0 0 0 1.82,-2.73 l 0.18,-0.35 -7.56,-17.5200002 h 4.21 l 5.32,12.95000022 z"
       class="cls-2" />
    <path
       style="fill:#ffffff"
       inkscape:connector-curvature="0"
       id="path16"
       d="m 167,4.7000012 a 9.14,9.14 0 0 1 -6.67,-2.71 9.49,9.49 0 0 1 0,-13.3400002 9.59,9.59 0 0 1 13.36,0 A 9.38,9.38 0 0 1 167,4.7000012 Z m -4,-5.34999998 a 5.68,5.68 0 0 0 7.92,0 5.85,5.85 0 0 0 0,-8.06000002 5.68,5.68 0 0 0 -7.92,0 5.88,5.88 0 0 0 0,8.06000002 z"
       class="cls-2" />
    <path
       style="fill:#ffffff"
       inkscape:connector-curvature="0"
       id="path18"
       d="m 193.09,-13.599999 h 3.85 V 4.2200012 h -3.85 v -2.27 a 6.07,6.07 0 0 1 -5.53,2.75 6.56,6.56 0 0 1 -5,-2 7.44,7.44 0 0 1 -1.89,-5.39 V -13.599999 h 3.85 v 10.5600002 a 4.18,4.18 0 0 0 1.07,3.07000002 4,4 0 0 0 2.93,1.06999998 4.38,4.38 0 0 0 3.28,-1.26999998 5.31,5.31 0 0 0 1.25,-3.87000002 z"
       class="cls-2" />
    <path
       style="fill:#ffffff"
       inkscape:connector-curvature="0"
       id="path20"
       d="m 225.34,4.2200012 h -4.61 l -7.31,-8.24 v 8.24 h -3.85 V -20.779999 h 3.85 v 15.0000002 l 6.92,-7.9200002 h 4.71 l -7.85,8.7400002 z"
       class="cls-2" />
    <path
       style="fill:#ffffff"
       inkscape:connector-curvature="0"
       id="path22"
       d="m 238.46,-14.059999 a 6.56,6.56 0 0 1 5,2 7.44,7.44 0 0 1 1.89,5.3900002 v 10.89 h -3.85 v -10.54 a 4.17,4.17 0 0 0 -1.07,-3.07 4,4 0 0 0 -2.93,-1.0700002 4.38,4.38 0 0 0 -3.28,1.2700002 5.31,5.31 0 0 0 -1.25,3.87 v 9.54 h -3.85 V -13.599999 h 3.85 v 2.28 a 6.08,6.08 0 0 1 5.49,-2.74 z"
       class="cls-2" />
    <path
       style="fill:#ffffff"
       inkscape:connector-curvature="0"
       id="path24"
       d="m 259,4.7000012 a 9.12,9.12 0 0 1 -6.67,-2.71 9.46,9.46 0 0 1 0,-13.3400002 9.44,9.44 0 1 1 6.67,16.0500002 z m -4,-5.34999998 a 5.68,5.68 0 0 0 7.92,0 5.88,5.88 0 0 0 0,-8.06000002 5.68,5.68 0 0 0 -7.92,0 5.88,5.88 0 0 0 0,8.06000002 z"
       class="cls-2" />
    <path
       style="fill:#ffffff"
       inkscape:connector-curvature="0"
       id="path26"
       d="m 292.9,-13.599999 h 4.1 l -5.64,17.8200002 h -3.78 l -3.78,-12.16 -3.8,12.16 h -4.09 l -5.18,-17.8400002 h 4.07 l 3.45,12.3100002 3.75,-12.2900002 h 3.69 l 3.71,12.3000002 z"
       class="cls-2" />
    <path
       style="fill:#9088ff"
       inkscape:connector-curvature="0"
       id="path28"
       d="m 331.46,-36.119999 v 2.14 h -3.16 v 7.47 H 326 v -7.47 h -3.13 v -2.14 z"
       class="cls-1" />
    <path
       style="fill:#9088ff"
       inkscape:connector-curvature="0"
       id="path30"
       d="m 344.7,-36.119999 v 9.61 h -2.29 v -5.62 l -3.41,5.08 v 0 l -3.41,-5 v 5.59 h -2.31 v -9.66 h 2.37 l 3.35,5.34 3.33,-5.36 z"
       class="cls-1" />
  </g>
</svg>
