<?xml version="1.0" encoding="UTF-8" standalone="no"?>
<svg
   xmlns:dc="http://purl.org/dc/elements/1.1/"
   xmlns:cc="http://creativecommons.org/ns#"
   xmlns:rdf="http://www.w3.org/1999/02/22-rdf-syntax-ns#"
   xmlns:svg="http://www.w3.org/2000/svg"
   xmlns="http://www.w3.org/2000/svg"
   xmlns:sodipodi="http://sodipodi.sourceforge.net/DTD/sodipodi-0.dtd"
   xmlns:inkscape="http://www.inkscape.org/namespaces/inkscape"
   enable-background="new 0 0 24 24"
   viewBox="0 0 20 16"
   width="40"
   height="32"
   version="1.1"
   id="svg10"
   sodipodi:docname="applications.svg"
   style="fill:#ffffff"
   inkscape:version="0.92.3 (2405546, 2018-03-11)">
  <metadata
     id="metadata16">
    <rdf:RDF>
      <cc:Work
         rdf:about="">
        <dc:format>image/svg+xml</dc:format>
        <dc:type
           rdf:resource="http://purl.org/dc/dcmitype/StillImage" />
        <dc:title></dc:title>
      </cc:Work>
    </rdf:RDF>
  </metadata>
  <defs
     id="defs14" />
  <sodipodi:namedview
     pagecolor="#ffffff"
     bordercolor="#666666"
     borderopacity="1"
     objecttolerance="10"
     gridtolerance="10"
     guidetolerance="10"
     inkscape:pageopacity="0"
     inkscape:pageshadow="2"
     inkscape:window-width="1920"
     inkscape:window-height="1052"
     id="namedview12"
     showgrid="false"
     inkscape:zoom="4.9166667"
     inkscape:cx="24"
     inkscape:cy="24"
     inkscape:window-x="0"
     inkscape:window-y="0"
     inkscape:window-maximized="1"
     inkscape:current-layer="svg10" />
  <g
     id="g8"
     transform="translate(-2,-4)">
    <rect
       height="24"
       width="24"
       id="rect2"
       x="0"
       y="0"
       style="fill:none" />
    <path
       d="M 20,18 H 4 V 6 h 5.17 l 2,2 H 20 Z M 18,12 H 6 v -2 h 12 z m -4,4 H 6 v -2 h 8 z"
       id="path4"
       inkscape:connector-curvature="0"
       style="opacity:0.3" />
    <path
       d="M 20,6 H 12 L 10,4 H 4 C 2.9,4 2.01,4.9 2.01,6 L 2,18 c 0,1.1 0.9,2 2,2 H 20.77 C 21.45,20 22,19.44 22,18.77 V 8 C 22,6.9 21.1,6 20,6 Z m 0,12 H 4 V 6 h 5.17 l 2,2 H 20 Z M 18,12 H 6 v -2 h 12 z m -4,4 H 6 v -2 h 8 z"
       id="path6"
       inkscape:connector-curvature="0" />
  </g>
</svg>
