<?xml version="1.0" encoding="UTF-8" standalone="no"?>
<svg
   xmlns:dc="http://purl.org/dc/elements/1.1/"
   xmlns:cc="http://creativecommons.org/ns#"
   xmlns:rdf="http://www.w3.org/1999/02/22-rdf-syntax-ns#"
   xmlns:svg="http://www.w3.org/2000/svg"
   xmlns="http://www.w3.org/2000/svg"
   xmlns:sodipodi="http://sodipodi.sourceforge.net/DTD/sodipodi-0.dtd"
   xmlns:inkscape="http://www.inkscape.org/namespaces/inkscape"
   viewBox="0 0 18 18"
   width="36"
   height="36"
   version="1.1"
   id="svg8"
   sodipodi:docname="call.svg"
   style="fill:#ffffff"
   inkscape:version="0.92.3 (2405546, 2018-03-11)">
  <metadata
     id="metadata14">
    <rdf:RDF>
      <cc:Work
         rdf:about="">
        <dc:format>image/svg+xml</dc:format>
        <dc:type
           rdf:resource="http://purl.org/dc/dcmitype/StillImage" />
        <dc:title />
      </cc:Work>
    </rdf:RDF>
  </metadata>
  <defs
     id="defs12" />
  <sodipodi:namedview
     pagecolor="#ffffff"
     bordercolor="#666666"
     borderopacity="1"
     objecttolerance="10"
     gridtolerance="10"
     guidetolerance="10"
     inkscape:pageopacity="0"
     inkscape:pageshadow="2"
     inkscape:window-width="1920"
     inkscape:window-height="1052"
     id="namedview10"
     showgrid="false"
     inkscape:zoom="6.9532167"
     inkscape:cx="-0.44911576"
     inkscape:cy="24"
     inkscape:window-x="0"
     inkscape:window-y="0"
     inkscape:window-maximized="1"
     inkscape:current-layer="svg8" />
  <g
     id="g847"
     transform="translate(-36.152542,0.05084723)"
     style="fill:#9088ff;fill-opacity:0.98445594">
    <path
       style="opacity:0.3;fill:#9088ff;fill-opacity:0.98445594"
       inkscape:connector-curvature="0"
       id="path4"
       d="m 52.152542,14.419153 c -0.88,-0.07 -1.75,-0.22 -2.6,-0.45 l -1.19,1.19 c 1.2,0.41 2.48,0.67 3.8,0.75 v -1.49 z m -12.46,-12.4700005 h -1.5 c 0.09,1.32 0.35,2.59 0.75,3.8 l 1.2,-1.2 c -0.24,-0.84 -0.39,-1.71 -0.45,-2.6 z" />
    <path
       inkscape:connector-curvature="0"
       id="path6"
       d="m 53.152542,17.949153 c 0.55,0 1,-0.45 1,-1 v -3.49 c 0,-0.55 -0.45,-1 -1,-1 -1.24,0 -2.45,-0.2 -3.57,-0.57 -0.1,-0.04 -0.21,-0.05 -0.31,-0.05 -0.26,0 -0.51,0.1 -0.71,0.29 l -2.2,2.2 c -2.83,-1.45 -5.15,-3.76 -6.59,-6.5900005 l 2.2,-2.2 c 0.28,-0.28 0.36,-0.67 0.25,-1.02 -0.37,-1.12 -0.57,-2.32 -0.57,-3.56999996 0,-0.55 -0.45,-1 -1,-1 h -3.5 c -0.55,0 -1,0.45 -1,1 0,9.39000046 7.61,17.00000046 17,17.00000046 z m -3.6,-3.98 c 0.85,0.24 1.72,0.39 2.6,0.45 v 1.49 c -1.32,-0.09 -2.59,-0.35 -3.8,-0.75 z m -11.37,-12.0200005 h 1.5 c 0.07,0.89 0.22,1.76 0.46,2.59 l -1.2,1.2 c -0.41,-1.2 -0.67,-2.47 -0.76,-3.79 z"
       style="fill:#9088ff;fill-opacity:0.98445594" />
  </g>
</svg>
