<svg width="198" height="39" viewBox="0 0 198 39" fill="none" xmlns="http://www.w3.org/2000/svg">
<path fill-rule="evenodd" clip-rule="evenodd" d="M2 0C0.895431 0 0 0.89543 0 2V24.3776L3.84026 22.2937C3.84026 22.2937 6.69835 27.4053 9.6114 27.4053C12.5244 27.4053 15.5474 23.448 15.5474 20.37C15.5474 19.1059 15.3389 18.0131 13.3052 18.0131C11.3835 18.0131 10.2962 19.2826 8.90815 20.9033C8.82732 20.9976 8.74546 21.0932 8.66236 21.1898C8.54385 21.3085 8.66935 21.5483 8.81014 21.8174C8.93042 22.0473 9.06187 22.2986 9.06187 22.5138C9.06187 22.981 8.48476 23.9978 7.38549 23.9978C6.41328 23.9978 5.40321 22.8002 5.99219 20.8711C6.02569 20.7614 6.01197 20.6354 5.99784 20.5056C5.97949 20.3371 5.96045 20.1621 6.04297 20.0078C9.41671 14.2942 14.2949 14.2962 15.8052 14.2968C15.8204 14.2968 15.8353 14.2968 15.8498 14.2968C16.0469 14.2968 16.236 14.2988 16.4158 14.3007C17.5645 14.313 18.3343 14.3212 18.4056 13.7744C18.4071 13.7629 18.4087 13.7513 18.4102 13.7396C18.4586 13.3721 18.5229 12.8845 18.1031 12.3138C18.0573 12.2516 17.9165 12.1329 17.7779 12.016C17.6454 11.9043 17.5149 11.7943 17.471 11.7367C16.9366 11.035 16.5097 10.4338 16.4542 10.1702C16.3443 9.64809 17.1689 9.76234 17.1689 9.76234C17.1689 9.76234 17.2011 9.07778 17.1687 8.4389C17.1633 8.33162 17.1108 8.24704 17.0556 8.158C16.9904 8.05287 16.9214 7.94153 16.9214 7.77934C16.9214 6.10296 19.9721 4.10113 22.1706 4.21106C23.9383 4.29944 25.4111 5.29207 26.0402 6.51775C26.0743 6.58428 26.6807 6.46707 27.2851 6.35023C27.8909 6.23313 28.4947 6.1164 28.5186 6.18541C29.0596 6.09375 29.123 7.2998 28.6406 7.41406C28.4783 7.45252 28.3141 7.49175 28.1489 7.5312C27.5835 7.6663 27.0073 7.80396 26.457 7.92188C26.4487 8.09844 26.4408 8.27145 26.433 8.44095C26.2112 13.2566 26.1196 15.2471 21.9782 15.6984C27.3085 18.8965 29.5882 14.0749 29.9813 13.2436C30.0037 13.1962 30.02 13.1618 30.0303 13.1426C30.1169 12.9818 30.1176 12.1581 30.1183 11.2885C30.1191 10.2261 30.12 9.09508 30.2777 9.02034C30.4923 8.91861 30.6674 9.23717 30.8685 9.60299C31.0018 9.84566 31.1466 10.1091 31.322 10.2845C31.4383 10.3011 31.7144 10.2496 32.0454 10.1879C32.809 10.0455 33.8644 9.8486 33.9219 10.3086C33.9219 10.5495 33.9379 10.8019 33.9542 11.0574C34.0381 12.3756 34.1273 13.7769 32.043 14.1172C31.4384 18.844 26.7013 21.4342 23.5684 21.4342C23.4462 22.8392 23.1324 24.0526 22.4178 25.0969C27.0736 26.028 28.015 28.1827 29.0995 30.6648C29.2313 30.9664 29.3652 31.2729 29.5081 31.5825C33.1906 31.5825 34.125 33.1215 34.125 33.1215L26.3202 35.4849C26.3202 35.4849 25.8256 34.6055 25.8256 32.6818C25.7214 32.5376 25.6022 32.3387 25.4619 32.1047C24.6398 30.7331 23.0974 28.1599 19.6697 28.3947C13.129 31.9123 6.47849 33.2314 2.02647 26.8557C1.27495 26.9284 0.598284 26.9343 0 26.8993V37C0 38.1046 0.89543 39 2 39H37C38.1046 39 39 38.1046 39 37V2C39 0.895431 38.1046 0 37 0H2Z" fill="white"/>
<path fill-rule="evenodd" clip-rule="evenodd" d="M59.5736 10C61.6302 10 63.2259 10.5315 64.3611 11.5945C65.4962 12.6575 66.1264 13.8652 66.2517 15.2175H64.1068C63.8635 14.1906 63.3789 13.3771 62.6529 12.7769C61.9268 12.1767 60.9078 11.8765 59.5958 11.8765C57.9963 11.8765 56.7045 12.4279 55.7205 13.5307C54.7365 14.6335 54.2445 16.3239 54.2445 18.6018C54.2445 20.4675 54.6885 21.9806 55.5768 23.1413C56.465 24.3019 57.7899 24.8822 59.5515 24.8822C61.1732 24.8822 62.4078 24.2712 63.2554 23.0491C63.7051 22.4055 64.0404 21.5594 64.2616 20.5108H66.4065C66.2149 22.1885 65.581 23.595 64.5048 24.7304C63.2149 26.0971 61.4754 26.7805 59.2862 26.7805C57.3992 26.7805 55.8145 26.22 54.5319 25.0992C52.844 23.6167 52 21.328 52 18.233C52 15.8827 52.6339 13.9556 53.9017 12.4514C55.2727 10.8171 57.1633 10 59.5736 10ZM68.8168 14.8053H70.8401V26.3683H68.8168V14.8053ZM68.8168 10.4339H70.8401V12.6467H68.8168V10.4339ZM74.2455 11.5077H76.2578V14.751H78.1484V16.3456H76.2578V23.9277C76.2578 24.3326 76.3978 24.6038 76.6779 24.7412C76.8327 24.8208 77.0907 24.8605 77.4519 24.8605C77.5477 24.8605 77.6509 24.8587 77.7615 24.8551C77.872 24.8515 78.001 24.8425 78.1484 24.828V26.3683C77.9199 26.4334 77.6822 26.4804 77.4353 26.5093C77.1884 26.5382 76.9212 26.5527 76.6337 26.5527C75.705 26.5527 75.0747 26.3195 74.7431 25.853C74.4114 25.3866 74.2455 24.781 74.2455 24.0362V16.3456H72.6423V14.751H74.2455V11.5077ZM80.1386 14.8053H82.1619V26.3683H80.1386V14.8053ZM80.1386 10.4339H82.1619V12.6467H80.1386V10.4339ZM84.2847 24.828L91.3056 16.4974H84.8044V14.751H93.9812V16.3456L87.0046 24.6219H94.1913V26.3683H84.2847V24.828ZM101.422 14.4907C102.262 14.4907 103.077 14.6841 103.866 15.071C104.654 15.4579 105.255 15.9587 105.668 16.5733C106.066 17.1591 106.331 17.8425 106.464 18.6235C106.582 19.1586 106.641 20.0119 106.641 21.1834H97.9615C97.9984 22.3621 98.2822 23.3076 98.8129 24.0199C99.3436 24.7322 100.165 25.0883 101.278 25.0883C102.318 25.0883 103.147 24.7521 103.766 24.0795C104.12 23.689 104.371 23.2371 104.518 22.7237H106.475C106.423 23.1503 106.252 23.6258 105.961 24.1501C105.67 24.6743 105.344 25.1028 104.982 25.4354C104.378 26.014 103.63 26.4044 102.738 26.6069C102.259 26.7226 101.717 26.7805 101.113 26.7805C99.6384 26.7805 98.389 26.2544 97.3645 25.2022C96.3399 24.15 95.8276 22.6767 95.8276 20.782C95.8276 18.9163 96.3436 17.4013 97.3755 16.2371C98.4075 15.0728 99.7563 14.4907 101.422 14.4907ZM104.595 19.6322C104.514 18.7862 104.326 18.11 104.032 17.6038C103.486 16.6637 102.576 16.1937 101.301 16.1937C100.387 16.1937 99.62 16.5173 99.0008 17.1645C98.3817 17.8117 98.0537 18.6343 98.0168 19.6322H104.595ZM109.084 14.751H110.975V16.3998C111.535 15.72 112.128 15.2319 112.755 14.9354C113.382 14.6389 114.078 14.4907 114.845 14.4907C116.525 14.4907 117.66 15.0656 118.25 16.2154C118.574 16.8445 118.737 17.7448 118.737 18.9163V26.3683H116.713V19.0465C116.713 18.3378 116.606 17.7665 116.393 17.3326C116.039 16.6095 115.398 16.2479 114.469 16.2479C113.997 16.2479 113.61 16.2949 113.308 16.3889C112.762 16.548 112.283 16.8662 111.871 17.3435C111.539 17.7268 111.323 18.1227 111.224 18.5312C111.124 18.9398 111.074 19.5238 111.074 20.2831V26.3683H109.084V14.751ZM123.38 21.2268C123.432 22.1307 123.649 22.8647 124.033 23.4287C124.762 24.4845 126.049 25.0124 127.891 25.0124C128.717 25.0124 129.469 24.8967 130.147 24.6653C131.459 24.2169 132.115 23.4143 132.115 22.2572C132.115 21.3895 131.838 20.7712 131.286 20.4024C130.725 20.0408 129.848 19.7262 128.654 19.4587L126.454 18.9706C125.017 18.6524 123.999 18.3017 123.402 17.9184C122.37 17.2531 121.854 16.2588 121.854 14.9354C121.854 13.5036 122.359 12.3285 123.369 11.4101C124.379 10.4917 125.809 10.0325 127.659 10.0325C129.362 10.0325 130.808 10.4357 131.999 11.242C133.189 12.0483 133.784 13.3373 133.784 15.109H131.717C131.606 14.2557 131.37 13.6012 131.009 13.1457C130.338 12.314 129.2 11.8982 127.593 11.8982C126.295 11.8982 125.363 12.1658 124.795 12.7009C124.228 13.2361 123.944 13.858 123.944 14.5666C123.944 15.3476 124.276 15.9189 124.939 16.2805C125.374 16.5119 126.358 16.8011 127.891 17.1482L130.169 17.6581C131.267 17.9039 132.115 18.2402 132.712 18.6668C133.744 19.4117 134.26 20.4928 134.26 21.9101C134.26 23.6746 133.606 24.9365 132.297 25.6958C130.989 26.4551 129.469 26.8347 127.736 26.8347C125.717 26.8347 124.136 26.3285 122.993 25.3161C121.851 24.3109 121.291 22.9478 121.313 21.2268H123.38ZM136.781 10.3796H138.771V16.3239C139.243 15.7381 139.666 15.3259 140.042 15.0873C140.684 14.6751 141.483 14.469 142.442 14.469C144.159 14.469 145.324 15.0584 145.935 16.2371C146.267 16.8807 146.433 17.7738 146.433 18.9163V26.3683H144.387V19.0465C144.387 18.1932 144.277 17.5677 144.056 17.1699C143.695 16.5336 143.016 16.2154 142.021 16.2154C141.196 16.2154 140.448 16.4938 139.777 17.0506C139.106 17.6074 138.771 18.6596 138.771 20.2071V26.3683H136.781V10.3796ZM149.374 14.8053H151.397V26.3683H149.374V14.8053ZM149.374 10.4339H151.397V12.6467H149.374V10.4339ZM159.402 25.0558C160.331 25.0558 161.103 24.6743 161.718 23.9114C162.334 23.1485 162.642 22.0078 162.642 20.4892C162.642 19.5635 162.505 18.7681 162.232 18.1028C161.717 16.8228 160.773 16.1829 159.402 16.1829C158.024 16.1829 157.08 16.859 156.572 18.2113C156.299 18.9344 156.163 19.8528 156.163 20.9664C156.163 21.8631 156.299 22.626 156.572 23.2552C157.088 24.4556 158.031 25.0558 159.402 25.0558ZM154.25 14.8053H156.185V16.3456C156.583 15.8177 157.018 15.4091 157.489 15.1198C158.16 14.6859 158.949 14.469 159.855 14.469C161.197 14.469 162.336 14.9734 163.272 15.9822C164.208 16.991 164.676 18.4318 164.676 20.3048C164.676 22.8358 164.002 24.6436 162.653 25.7283C161.798 26.4153 160.803 26.7588 159.667 26.7588C158.776 26.7588 158.027 26.5672 157.423 26.1839C157.069 25.9669 156.675 25.5945 156.24 25.0666V31H154.25V14.8053ZM171.995 25.0558C172.924 25.0558 173.696 24.6743 174.312 23.9114C174.927 23.1485 175.235 22.0078 175.235 20.4892C175.235 19.5635 175.098 18.7681 174.826 18.1028C174.31 16.8228 173.366 16.1829 171.995 16.1829C170.617 16.1829 169.673 16.859 169.165 18.2113C168.892 18.9344 168.756 19.8528 168.756 20.9664C168.756 21.8631 168.892 22.626 169.165 23.2552C169.681 24.4556 170.624 25.0558 171.995 25.0558ZM166.843 14.8053H168.778V16.3456C169.176 15.8177 169.611 15.4091 170.083 15.1198C170.753 14.6859 171.542 14.469 172.449 14.469C173.79 14.469 174.929 14.9734 175.865 15.9822C176.801 16.991 177.269 18.4318 177.269 20.3048C177.269 22.8358 176.595 24.6436 175.246 25.7283C174.391 26.4153 173.396 26.7588 172.261 26.7588C171.369 26.7588 170.621 26.5672 170.016 26.1839C169.662 25.9669 169.268 25.5945 168.833 25.0666V31H166.843V14.8053ZM184.522 14.4907C185.363 14.4907 186.177 14.6841 186.966 15.071C187.754 15.4579 188.355 15.9587 188.768 16.5733C189.166 17.1591 189.431 17.8425 189.564 18.6235C189.682 19.1586 189.741 20.0119 189.741 21.1834H181.062C181.098 22.3621 181.382 23.3076 181.913 24.0199C182.444 24.7322 183.265 25.0883 184.378 25.0883C185.418 25.0883 186.247 24.7521 186.866 24.0795C187.22 23.689 187.471 23.2371 187.618 22.7237H189.575C189.523 23.1503 189.352 23.6258 189.061 24.1501C188.77 24.6743 188.444 25.1028 188.082 25.4354C187.478 26.014 186.73 26.4044 185.838 26.6069C185.359 26.7226 184.817 26.7805 184.213 26.7805C182.738 26.7805 181.489 26.2544 180.465 25.2022C179.44 24.15 178.928 22.6767 178.928 20.782C178.928 18.9163 179.444 17.4013 180.476 16.2371C181.508 15.0728 182.856 14.4907 184.522 14.4907ZM187.695 19.6322C187.614 18.7862 187.426 18.11 187.132 17.6038C186.586 16.6637 185.676 16.1937 184.401 16.1937C183.487 16.1937 182.72 16.5173 182.101 17.1645C181.482 17.8117 181.154 18.6343 181.117 19.6322H187.695ZM192.24 14.751H194.13V16.7577C194.285 16.3673 194.665 15.8918 195.269 15.3314C195.873 14.7709 196.57 14.4907 197.359 14.4907C197.396 14.4907 197.458 14.4943 197.547 14.5015C197.635 14.5088 197.786 14.5232 198 14.5449V16.6059C197.882 16.5842 197.773 16.5697 197.674 16.5625C197.574 16.5553 197.466 16.5517 197.348 16.5517C196.345 16.5517 195.575 16.868 195.037 17.5008C194.499 18.1335 194.23 18.8621 194.23 19.6865V26.3683H192.24V14.751Z" fill="white"/>
</svg>
