<?xml version="1.0" encoding="UTF-8" standalone="no"?>
<svg
   xmlns:dc="http://purl.org/dc/elements/1.1/"
   xmlns:cc="http://creativecommons.org/ns#"
   xmlns:rdf="http://www.w3.org/1999/02/22-rdf-syntax-ns#"
   xmlns:svg="http://www.w3.org/2000/svg"
   xmlns="http://www.w3.org/2000/svg"
   xmlns:sodipodi="http://sodipodi.sourceforge.net/DTD/sodipodi-0.dtd"
   xmlns:inkscape="http://www.inkscape.org/namespaces/inkscape"
   viewBox="0 0 24 18"
   width="48"
   height="36"
   version="1.1"
   id="svg8"
   sodipodi:docname="consulting.svg"
   style="fill:#ffffff"
   inkscape:version="0.92.3 (2405546, 2018-03-11)">
  <metadata
     id="metadata14">
    <rdf:RDF>
      <cc:Work
         rdf:about="">
        <dc:format>image/svg+xml</dc:format>
        <dc:type
           rdf:resource="http://purl.org/dc/dcmitype/StillImage" />
        <dc:title></dc:title>
      </cc:Work>
    </rdf:RDF>
  </metadata>
  <defs
     id="defs12" />
  <sodipodi:namedview
     pagecolor="#ffffff"
     bordercolor="#666666"
     borderopacity="1"
     objecttolerance="10"
     gridtolerance="10"
     guidetolerance="10"
     inkscape:pageopacity="0"
     inkscape:pageshadow="2"
     inkscape:window-width="1920"
     inkscape:window-height="1052"
     id="namedview10"
     showgrid="false"
     inkscape:zoom="4.9166667"
     inkscape:cx="23.79661"
     inkscape:cy="24"
     inkscape:window-x="0"
     inkscape:window-y="0"
     inkscape:window-maximized="1"
     inkscape:current-layer="svg8" />
  <path
     d="M 22,2 H 2 V 16 H 22 Z M 9,3 c 1.65,0 3,1.35 3,3 C 12,7.65 10.65,9 9,9 7.35,9 6,7.65 6,6 6,4.35 7.35,3 9,3 Z m 6,12 H 3 V 13.59 C 3,11.08 6.97,10 9,10 c 2.03,0 6,1.08 6,3.58 z m 2.85,-4 h 1.64 L 21,13 19.01,14.99 C 17.7,14.01 16.73,12.61 16.28,11 16.1,10.36 16,9.69 16,9 16,8.31 16.1,7.64 16.28,7 16.73,5.38 17.7,3.99 19.01,3.01 L 21,5 19.49,7 h -1.64 c -0.22,0.63 -0.35,1.3 -0.35,2 0,0.7 0.13,1.37 0.35,2 z"
     id="path4"
     inkscape:connector-curvature="0"
     style="opacity:0.3" />
  <path
     d="m 2,18 h 20 c 1.1,0 1.99,-0.9 1.99,-2 L 24,2 C 24,0.9 23.1,0 22,0 H 2 C 0.9,0 0,0.9 0,2 v 14 c 0,1.1 0.9,2 2,2 z M 2,2 H 22 V 16 H 2 Z M 19.49,7 21,5 19.01,3.01 C 17.7,3.99 16.73,5.38 16.28,7 16.1,7.64 16,8.31 16,9 c 0,0.69 0.1,1.36 0.28,2 0.45,1.61 1.42,3.01 2.73,3.99 L 21,13 19.49,11 H 17.85 C 17.63,10.37 17.5,9.7 17.5,9 17.5,8.3 17.63,7.63 17.85,7 Z M 9,9 C 10.65,9 12,7.65 12,6 12,4.35 10.65,3 9,3 7.35,3 6,4.35 6,6 6,7.65 7.35,9 9,9 Z M 9,5 C 9.55,5 10,5.45 10,6 10,6.55 9.55,7 9,7 8.45,7 8,6.55 8,6 8,5.45 8.45,5 9,5 Z m 0,5 C 6.97,10 3,11.08 3,13.58 V 15 H 15 V 13.59 C 15,11.08 11.03,10 9,10 Z M 5.48,13 C 6.22,12.5 7.7,12 9,12 c 1.3,0 2.77,0.49 3.52,1 z"
     id="path6"
     inkscape:connector-curvature="0" />
</svg>
