<?xml version="1.0" encoding="UTF-8" standalone="no"?>
<svg
   xmlns:dc="http://purl.org/dc/elements/1.1/"
   xmlns:cc="http://creativecommons.org/ns#"
   xmlns:rdf="http://www.w3.org/1999/02/22-rdf-syntax-ns#"
   xmlns:svg="http://www.w3.org/2000/svg"
   xmlns="http://www.w3.org/2000/svg"
   xmlns:sodipodi="http://sodipodi.sourceforge.net/DTD/sodipodi-0.dtd"
   xmlns:inkscape="http://www.inkscape.org/namespaces/inkscape"
   viewBox="0 0 18 18"
   width="36"
   height="36"
   version="1.1"
   id="svg8"
   sodipodi:docname="data-gathering.svg"
   style="fill:#ffffff"
   inkscape:version="0.92.3 (2405546, 2018-03-11)">
  <metadata
     id="metadata14">
    <rdf:RDF>
      <cc:Work
         rdf:about="">
        <dc:format>image/svg+xml</dc:format>
        <dc:type
           rdf:resource="http://purl.org/dc/dcmitype/StillImage" />
        <dc:title></dc:title>
      </cc:Work>
    </rdf:RDF>
  </metadata>
  <defs
     id="defs12" />
  <sodipodi:namedview
     pagecolor="#ffffff"
     bordercolor="#666666"
     borderopacity="1"
     objecttolerance="10"
     gridtolerance="10"
     guidetolerance="10"
     inkscape:pageopacity="0"
     inkscape:pageshadow="2"
     inkscape:window-width="1600"
     inkscape:window-height="832"
     id="namedview10"
     showgrid="false"
     inkscape:zoom="4.9166667"
     inkscape:cx="38.156096"
     inkscape:cy="24"
     inkscape:window-x="1920"
     inkscape:window-y="180"
     inkscape:window-maximized="1"
     inkscape:current-layer="svg8" />
  <g
     id="g823"
     transform="translate(-3,-3)">
    <path
       id="path4"
       d="m 7,7 4,1 V 5 H 5 v 6 h 3 z m 1,6 H 5 v 6 h 6 v -3 l -4,1 z m 9,4 -4,-1 v 3 h 6 v -6 h -3 z m -4,-9 4,-1 -1,4 h 3 V 5 h -6 z"
       inkscape:connector-curvature="0"
       style="opacity:0.3" />
    <path
       id="path6"
       d="M 19,3 H 5 C 3.9,3 3,3.9 3,5 v 14 c 0,1.1 0.9,2 2,2 h 14 c 1.1,0 2,-0.9 2,-2 V 5 C 21,3.9 20.1,3 19,3 Z M 5,5 h 6 V 8 L 7,7 8,11 H 5 Z m 6,14 H 5 v -6 h 3 l -1,4 4,-1 z M 9.37,14.63 10.28,12 9.37,9.37 12,10.28 14.63,9.37 13.72,12 14.63,14.63 12,13.72 Z M 19,19 h -6 v -3 l 4,1 -1,-4 h 3 z m 0,-8 H 16 L 17,7 13,8 V 5 h 6 z"
       inkscape:connector-curvature="0" />
  </g>
</svg>
