<svg id="Layer_1" data-name="Layer 1" xmlns="http://www.w3.org/2000/svg" viewBox="0 0 472.61 472.61"><defs><style>.cls-1{fill:#fff;}</style></defs><path class="cls-1" d="M472.61,15.75v441.1a15.77,15.77,0,0,1-15.76,15.76H304.67V315.07h62.07l9.3-71.52H305.15V198c0-20.63,5.67-34.66,35.44-34.66h37.5V99.56a533.42,533.42,0,0,0-55-2.83c-54.51,0-91.69,33.24-91.69,94.36v52.62h-61.6v71.52h61.6V472.61H15.75A15.76,15.76,0,0,1,0,456.85V15.75A15.75,15.75,0,0,1,15.75,0h441.1A15.76,15.76,0,0,1,472.61,15.75Z"/></svg>