<?xml version="1.0" encoding="UTF-8" standalone="no"?>
<svg
   xmlns:dc="http://purl.org/dc/elements/1.1/"
   xmlns:cc="http://creativecommons.org/ns#"
   xmlns:rdf="http://www.w3.org/1999/02/22-rdf-syntax-ns#"
   xmlns:svg="http://www.w3.org/2000/svg"
   xmlns="http://www.w3.org/2000/svg"
   xmlns:sodipodi="http://sodipodi.sourceforge.net/DTD/sodipodi-0.dtd"
   xmlns:inkscape="http://www.inkscape.org/namespaces/inkscape"
   viewBox="0 0 19.5 19.5"
   width="39"
   height="39"
   version="1.1"
   id="svg6"
   sodipodi:docname="globe.svg"
   style="fill:#ffffff"
   inkscape:version="0.92.3 (2405546, 2018-03-11)">
  <metadata
     id="metadata12">
    <rdf:RDF>
      <cc:Work
         rdf:about="">
        <dc:format>image/svg+xml</dc:format>
        <dc:type
           rdf:resource="http://purl.org/dc/dcmitype/StillImage" />
        <dc:title />
      </cc:Work>
    </rdf:RDF>
  </metadata>
  <defs
     id="defs10" />
  <sodipodi:namedview
     pagecolor="#ffffff"
     bordercolor="#666666"
     borderopacity="1"
     objecttolerance="10"
     gridtolerance="10"
     guidetolerance="10"
     inkscape:pageopacity="0"
     inkscape:pageshadow="2"
     inkscape:window-width="1600"
     inkscape:window-height="832"
     id="namedview8"
     showgrid="false"
     inkscape:zoom="4.9166667"
     inkscape:cx="-10.576271"
     inkscape:cy="24"
     inkscape:window-x="166"
     inkscape:window-y="1080"
     inkscape:window-maximized="1"
     inkscape:current-layer="svg6" />
  <path
     d="m 0,-4.5 h 24 v 24 H 0 Z"
     id="path2"
     inkscape:connector-curvature="0"
     style="fill:none" />
  <path
     d="M 9.74025,0 C 4.35825,0 0,4.368 0,9.75 0,15.132 4.35825,19.5 9.74025,19.5 15.132,19.5 19.5,15.132 19.5,9.75 19.5,4.368 15.132,0 9.74025,0 Z M 16.497,5.85 h -2.87625 c -0.312,-1.21875 -0.7605,-2.38875 -1.3455,-3.471 1.794,0.61425 3.28575,1.86225 4.22175,3.471 z M 9.75,1.989 c 0.80925,1.17 1.443,2.46675 1.86225,3.861 H 7.88775 C 8.307,4.45575 8.94075,3.159 9.75,1.989 Z M 2.2035,11.7 C 2.0475,11.076 1.95,10.42275 1.95,9.75 1.95,9.07725 2.0475,8.424 2.2035,7.8 H 5.499 C 5.421,8.4435 5.3625,9.087 5.3625,9.75 c 0,0.663 0.0585,1.3065 0.1365,1.95 z m 0.7995,1.95 h 2.87625 c 0.312,1.21875 0.7605,2.38875 1.3455,3.471 C 5.43075,16.50675 3.939,15.2685 3.003,13.65 Z M 5.87925,5.85 H 3.003 C 3.939,4.2315 5.43075,2.99325 7.22475,2.379 6.63975,3.46125 6.19125,4.63125 5.87925,5.85 Z M 9.75,17.511 C 8.94075,16.341 8.307,15.04425 7.88775,13.65 h 3.7245 C 11.193,15.04425 10.55925,16.341 9.75,17.511 Z M 12.0315,11.7 h -4.563 c -0.08775,-0.6435 -0.156,-1.287 -0.156,-1.95 0,-0.663 0.06825,-1.31625 0.156,-1.95 h 4.563 c 0.08775,0.63375 0.156,1.287 0.156,1.95 0,0.663 -0.06825,1.3065 -0.156,1.95 z m 0.24375,5.421 c 0.585,-1.08225 1.0335,-2.25225 1.3455,-3.471 H 16.497 c -0.936,1.60875 -2.42775,2.85675 -4.22175,3.471 z M 14.001,11.7 c 0.078,-0.6435 0.1365,-1.287 0.1365,-1.95 0,-0.663 -0.0585,-1.3065 -0.1365,-1.95 h 3.2955 c 0.156,0.624 0.2535,1.27725 0.2535,1.95 0,0.67275 -0.0975,1.326 -0.2535,1.95 z"
     id="path4"
     inkscape:connector-curvature="0"
     style="stroke-width:1;fill:#9088ff;fill-opacity:0.93888891" />
</svg>
