<?xml version="1.0" encoding="UTF-8" standalone="no"?>
<!-- Generator: Adobe Illustrator 24.2.3, SVG Export Plug-In . SVG Version: 6.00 Build 0)  -->

<svg
   xmlns:dc="http://purl.org/dc/elements/1.1/"
   xmlns:cc="http://creativecommons.org/ns#"
   xmlns:rdf="http://www.w3.org/1999/02/22-rdf-syntax-ns#"
   xmlns:svg="http://www.w3.org/2000/svg"
   xmlns="http://www.w3.org/2000/svg"
   xmlns:sodipodi="http://sodipodi.sourceforge.net/DTD/sodipodi-0.dtd"
   xmlns:inkscape="http://www.inkscape.org/namespaces/inkscape"
   version="1.1"
   x="0px"
   y="0px"
   viewBox="0 0 133 117"
   xml:space="preserve"
   id="svg42"
   sodipodi:docname="happy.svg"
   width="133"
   height="117"
   inkscape:version="0.92.3 (2405546, 2018-03-11)"><metadata
   id="metadata48"><rdf:RDF><cc:Work
       rdf:about=""><dc:format>image/svg+xml</dc:format><dc:type
         rdf:resource="http://purl.org/dc/dcmitype/StillImage" /><dc:title></dc:title></cc:Work></rdf:RDF></metadata><defs
   id="defs46" /><sodipodi:namedview
   pagecolor="#ffffff"
   bordercolor="#666666"
   borderopacity="1"
   objecttolerance="10"
   gridtolerance="10"
   guidetolerance="10"
   inkscape:pageopacity="0"
   inkscape:pageshadow="2"
   inkscape:window-width="690"
   inkscape:window-height="480"
   id="namedview44"
   showgrid="false"
   inkscape:zoom="1.3023563"
   inkscape:cx="90.616608"
   inkscape:cy="63.730638"
   inkscape:window-x="923"
   inkscape:window-y="437"
   inkscape:window-maximized="0"
   inkscape:current-layer="svg42" />
<style
   type="text/css"
   id="style2">
	.st0{fill:#FFFFFF;}
	.st1{fill:#141923;}
	.st2{fill:#FF5534;}
	.st3{fill:#9088FF;}
	.st4{display:none;}
	
		.st5{display:inline;fill:none;stroke:#9088FF;stroke-width:0.2699;stroke-miterlimit:10;stroke-dasharray:2.159,2.159,2.159,2.159,2.159,2.159;}
	
		.st6{display:inline;fill:none;stroke:#9088FF;stroke-width:0.193;stroke-miterlimit:10;stroke-dasharray:1.544,1.544,1.544,1.544,1.544,1.544;}
	
		.st7{display:inline;fill:none;stroke:#9088FF;stroke-width:0.2041;stroke-miterlimit:10;stroke-dasharray:1.6325,1.6325,1.6325,1.6325,1.6325,1.6325;}
	.st8{display:inline;fill:none;stroke:#9088FF;stroke-width:0.2662;stroke-miterlimit:10;}
	.st9{display:inline;opacity:0.2;fill:#9088FF;}
</style>
<g
   id="Icons_1_"
   transform="translate(-31.794878,-32.135046)">
	<g
   id="g12">
		<g
   id="g6">
			<path
   class="st2"
   d="M 97.97,115.53 C 81.39,115.56 66.13,100.54 65.74,84 65.73,83.66 65.46,83.39 65.12,83.39 l -32.16,0.06 c -0.35,0 -0.65,0.3 -0.64,0.65 0.41,35.93 29.69,64.91 65.71,64.85 36.02,-0.06 65.21,-29.13 65.5,-65.06 0,-0.35 -0.29,-0.65 -0.65,-0.65 l -32.16,0.06 c -0.34,0 -0.61,0.27 -0.61,0.61 -0.34,16.53 -15.55,31.59 -32.14,31.62 z"
   id="path4"
   inkscape:connector-curvature="0"
   style="fill:#ff5534" />
		</g>
		<path
   class="st3"
   d="M 63.87,64.5 H 32.95 c -0.35,0 -0.63,-0.28 -0.63,-0.63 V 32.95 c 0,-0.35 0.28,-0.63 0.63,-0.63 h 30.92 c 0.35,0 0.63,0.28 0.63,0.63 v 30.92 c 0,0.35 -0.28,0.63 -0.63,0.63 z"
   id="path8"
   inkscape:connector-curvature="0"
   style="fill:#9088ff" />
		<path
   class="st3"
   d="m 163.64,64.5 h -30.92 c -0.35,0 -0.63,-0.28 -0.63,-0.63 V 32.95 c 0,-0.35 0.28,-0.63 0.63,-0.63 h 30.92 c 0.35,0 0.63,0.28 0.63,0.63 v 30.92 c 0,0.35 -0.28,0.63 -0.63,0.63 z"
   id="path10"
   inkscape:connector-curvature="0"
   style="fill:#9088ff" />
	</g>
</g>
<g
   id="Guides"
   class="st4"
   style="display:none"
   transform="translate(0,-64.210007)">
	<line
   class="st5"
   x1="32.310001"
   y1="0.13"
   x2="32.310001"
   y2="181.07001"
   id="line15"
   style="display:inline;fill:none;stroke:#9088ff;stroke-width:0.26989999;stroke-miterlimit:10;stroke-dasharray:2.159, 2.159, 2.159, 2.159, 2.159, 2.159" />
	<line
   class="st5"
   x1="164.27"
   y1="0.13"
   x2="164.27"
   y2="181.07001"
   id="line17"
   style="display:inline;fill:none;stroke:#9088ff;stroke-width:0.26989999;stroke-miterlimit:10;stroke-dasharray:2.159, 2.159, 2.159, 2.159, 2.159, 2.159" />
	<line
   class="st5"
   x1="132.09"
   y1="0.13"
   x2="132.09"
   y2="181.07001"
   id="line19"
   style="display:inline;fill:none;stroke:#9088ff;stroke-width:0.26989999;stroke-miterlimit:10;stroke-dasharray:2.159, 2.159, 2.159, 2.159, 2.159, 2.159" />
	<line
   class="st5"
   x1="64.68"
   y1="0.13"
   x2="64.68"
   y2="181.07001"
   id="line21"
   style="display:inline;fill:none;stroke:#9088ff;stroke-width:0.26989999;stroke-miterlimit:10;stroke-dasharray:2.159, 2.159, 2.159, 2.159, 2.159, 2.159" />
	<line
   class="st6"
   x1="196.45"
   y1="32.310001"
   x2="0.13"
   y2="32.310001"
   id="line23"
   style="display:inline;fill:none;stroke:#9088ff;stroke-width:0.193;stroke-miterlimit:10;stroke-dasharray:1.544, 1.544, 1.544, 1.544, 1.544, 1.544" />
	<line
   class="st6"
   x1="196.45"
   y1="64.5"
   x2="0.13"
   y2="64.5"
   id="line25"
   style="display:inline;fill:none;stroke:#9088ff;stroke-width:0.193;stroke-miterlimit:10;stroke-dasharray:1.544, 1.544, 1.544, 1.544, 1.544, 1.544" />
	<line
   class="st6"
   x1="196.45"
   y1="83.230003"
   x2="0.13"
   y2="83.230003"
   id="line27"
   style="display:inline;fill:none;stroke:#9088ff;stroke-width:0.193;stroke-miterlimit:10;stroke-dasharray:1.544, 1.544, 1.544, 1.544, 1.544, 1.544" />
	<line
   class="st7"
   x1="196.45"
   y1="148.94"
   x2="0.13"
   y2="148.94"
   id="line29"
   style="display:inline;fill:none;stroke:#9088ff;stroke-width:0.2041;stroke-miterlimit:10;stroke-dasharray:1.6325, 1.6325, 1.6325, 1.6325, 1.6325, 1.6325" />
	<rect
   x="0.13"
   y="0.13"
   class="st8"
   width="196.32001"
   height="180.94"
   id="rect31"
   style="display:inline;fill:none;stroke:#9088ff;stroke-width:0.26620001;stroke-miterlimit:10" />
	<path
   class="st9"
   d="M 31.68,32.32 H 0.76 c -0.35,0 -0.63,-0.28 -0.63,-0.63 V 0.76 c 0,-0.35 0.28,-0.63 0.63,-0.63 h 30.92 c 0.35,0 0.63,0.28 0.63,0.63 v 30.92 c 0.01,0.35 -0.28,0.64 -0.63,0.64 z"
   id="path33"
   inkscape:connector-curvature="0"
   style="display:inline;opacity:0.2;fill:#9088ff" />
	<path
   class="st9"
   d="M 195.82,32.32 H 164.9 c -0.35,0 -0.63,-0.28 -0.63,-0.63 V 0.76 c 0,-0.35 0.28,-0.63 0.63,-0.63 h 30.92 c 0.35,0 0.63,0.28 0.63,0.63 v 30.92 c 0,0.35 -0.28,0.64 -0.63,0.64 z"
   id="path35"
   inkscape:connector-curvature="0"
   style="display:inline;opacity:0.2;fill:#9088ff" />
	<path
   class="st9"
   d="M 31.68,181.07 H 0.76 c -0.35,0 -0.63,-0.28 -0.63,-0.63 v -30.92 c 0,-0.35 0.28,-0.63 0.63,-0.63 h 30.92 c 0.35,0 0.63,0.28 0.63,0.63 v 30.92 c 0.01,0.35 -0.28,0.63 -0.63,0.63 z"
   id="path37"
   inkscape:connector-curvature="0"
   style="display:inline;opacity:0.2;fill:#9088ff" />
	<path
   class="st9"
   d="M 195.82,181.07 H 164.9 c -0.35,0 -0.63,-0.28 -0.63,-0.63 v -30.92 c 0,-0.35 0.28,-0.63 0.63,-0.63 h 30.92 c 0.35,0 0.63,0.28 0.63,0.63 v 30.92 c 0,0.35 -0.28,0.63 -0.63,0.63 z"
   id="path39"
   inkscape:connector-curvature="0"
   style="display:inline;opacity:0.2;fill:#9088ff" />
</g>
</svg>