<?xml version="1.0" encoding="UTF-8" standalone="no"?>
<svg
   xmlns:dc="http://purl.org/dc/elements/1.1/"
   xmlns:cc="http://creativecommons.org/ns#"
   xmlns:rdf="http://www.w3.org/1999/02/22-rdf-syntax-ns#"
   xmlns:svg="http://www.w3.org/2000/svg"
   xmlns="http://www.w3.org/2000/svg"
   xmlns:sodipodi="http://sodipodi.sourceforge.net/DTD/sodipodi-0.dtd"
   xmlns:inkscape="http://www.inkscape.org/namespaces/inkscape"
   viewBox="0 0 24 24"
   fill="white"
   width="48px"
   height="48px"
   version="1.1"
   id="svg837"
   sodipodi:docname="hear.svg"
   inkscape:version="0.92.3 (2405546, 2018-03-11)">
  <metadata
     id="metadata843">
    <rdf:RDF>
      <cc:Work
         rdf:about="">
        <dc:format>image/svg+xml</dc:format>
        <dc:type
           rdf:resource="http://purl.org/dc/dcmitype/StillImage" />
      </cc:Work>
    </rdf:RDF>
  </metadata>
  <defs
     id="defs841" />
  <sodipodi:namedview
     pagecolor="#ffffff"
     bordercolor="#666666"
     borderopacity="1"
     objecttolerance="10"
     gridtolerance="10"
     guidetolerance="10"
     inkscape:pageopacity="0"
     inkscape:pageshadow="2"
     inkscape:window-width="1600"
     inkscape:window-height="832"
     id="namedview839"
     showgrid="false"
     inkscape:zoom="4.9166667"
     inkscape:cx="31.932203"
     inkscape:cy="24"
     inkscape:window-x="320"
     inkscape:window-y="1080"
     inkscape:window-maximized="1"
     inkscape:current-layer="svg837" />
  <g
     id="g2556"
     transform="matrix(0.75,0,0,0.75,3,3)"
     style="stroke-width:1.33333337">
    <path
       id="path831"
       d="M 0,0 H 24 V 24 H 0 Z"
       inkscape:connector-curvature="0"
       style="fill:none;stroke-width:1.77777779" />
    <path
       id="path833"
       d="M 20,4 H 4 V 17.17 L 5.17,16 H 20 Z M 14,14 H 6 v -2 h 8 z m 4,-3 H 6 V 9 H 18 Z M 18,8 H 6 V 6 h 12 z"
       inkscape:connector-curvature="0"
       style="opacity:0.3;stroke-width:1.77777779" />
    <path
       id="path835"
       d="m 20,18 c 1.1,0 2,-0.9 2,-2 V 4 C 22,2.9 21.1,2 20,2 H 4 C 2.9,2 2.01,2.9 2.01,4 L 2,22 6,18 Z M 4,17.17 V 4 H 20 V 16 H 5.17 Z M 6,12 h 8 v 2 H 6 Z M 6,9 h 12 v 2 H 6 Z M 6,6 H 18 V 8 H 6 Z"
       inkscape:connector-curvature="0"
       style="stroke-width:1.33333337" />
  </g>
</svg>
