<svg id="Layer_1" data-name="Layer 1" xmlns="http://www.w3.org/2000/svg" viewBox="0 0 472.61 472.61"><defs><style>.cls-1{fill:#fff;}</style></defs><circle class="cls-1" cx="236.3" cy="236.3" r="78.77"/><path class="cls-1" d="M0,15.75v441.1a15.76,15.76,0,0,0,15.75,15.76h441.1a15.77,15.77,0,0,0,15.76-15.76V15.75A15.76,15.76,0,0,0,456.85,0H15.75A15.75,15.75,0,0,0,0,15.75ZM262,365.13A131.55,131.55,0,0,1,107.48,210.59C117.34,159,159,117.35,210.57,107.49A131.54,131.54,0,0,1,365.12,262C355.26,313.65,313.64,355.27,262,365.13ZM394,113A26.26,26.26,0,1,1,420.21,86.7,26.26,26.26,0,0,1,394,113Z"/></svg>