<?xml version="1.0" encoding="UTF-8" standalone="no"?>
<svg
   xmlns:dc="http://purl.org/dc/elements/1.1/"
   xmlns:cc="http://creativecommons.org/ns#"
   xmlns:rdf="http://www.w3.org/1999/02/22-rdf-syntax-ns#"
   xmlns:svg="http://www.w3.org/2000/svg"
   xmlns="http://www.w3.org/2000/svg"
   xmlns:sodipodi="http://sodipodi.sourceforge.net/DTD/sodipodi-0.dtd"
   xmlns:inkscape="http://www.inkscape.org/namespaces/inkscape"
   viewBox="0 0 24 24"
   fill="white"
   width="48px"
   height="48px"
   version="1.1"
   id="svg823"
   sodipodi:docname="join.svg"
   inkscape:version="0.92.3 (2405546, 2018-03-11)">
  <metadata
     id="metadata829">
    <rdf:RDF>
      <cc:Work
         rdf:about="">
        <dc:format>image/svg+xml</dc:format>
        <dc:type
           rdf:resource="http://purl.org/dc/dcmitype/StillImage" />
        <dc:title></dc:title>
      </cc:Work>
    </rdf:RDF>
  </metadata>
  <defs
     id="defs827" />
  <sodipodi:namedview
     pagecolor="#ffffff"
     bordercolor="#666666"
     borderopacity="1"
     objecttolerance="10"
     gridtolerance="10"
     guidetolerance="10"
     inkscape:pageopacity="0"
     inkscape:pageshadow="2"
     inkscape:window-width="1600"
     inkscape:window-height="832"
     id="namedview825"
     showgrid="false"
     inkscape:zoom="4.92"
     inkscape:cx="24"
     inkscape:cy="24"
     inkscape:window-x="320"
     inkscape:window-y="1080"
     inkscape:window-maximized="1"
     inkscape:current-layer="svg823" />
  <path
     d="M0 0h24v24H0V0z"
     fill="none"
     id="path815" />
  <g
     id="g2551"
     transform="matrix(0.81818182,0,0,0.81818182,2.1818182,2.1818182)"
     style="stroke-width:1.22222221">
    <path
       id="path817"
       d="m 15,16 c -2.69,0 -5.77,1.28 -6,2 h 12 c -0.2,-0.71 -3.3,-2 -6,-2 z"
       inkscape:connector-curvature="0"
       style="opacity:0.3;stroke-width:1.4938271" />
    <circle
       id="circle819"
       r="2"
       cy="8"
       cx="15"
       style="opacity:0.3;stroke-width:1.4938271" />
    <g
       id="g2543"
       style="stroke-width:1.22222221">
      <g
         id="g2538"
         style="stroke-width:1.22222221">
        <g
           id="g2534"
           style="stroke-width:1.22222221">
          <path
             d="m 15,12 c 2.21,0 4,-1.79 4,-4 0,-2.21 -1.79,-4 -4,-4 -2.21,0 -4,1.79 -4,4 0,2.21 1.79,4 4,4 z m 0,-6 c 1.1,0 2,0.9 2,2 0,1.1 -0.9,2 -2,2 -1.1,0 -2,-0.9 -2,-2 0,-1.1 0.9,-2 2,-2 z m 0,8 c -2.67,0 -8,1.34 -8,4 v 2 h 16 v -2 c 0,-2.66 -5.33,-4 -8,-4 z m -6,4 c 0.22,-0.72 3.31,-2 6,-2 2.7,0 5.8,1.29 6,2 z M 6,15 V 12 H 9 V 10 H 6 V 7 H 4 v 3 H 1 v 2 h 3 v 3 z"
             id="path821"
             inkscape:connector-curvature="0"
             style="stroke-width:1.22222221" />
        </g>
      </g>
    </g>
  </g>
</svg>
