<?xml version="1.0" encoding="UTF-8" standalone="no"?>
<svg
   xmlns:dc="http://purl.org/dc/elements/1.1/"
   xmlns:cc="http://creativecommons.org/ns#"
   xmlns:rdf="http://www.w3.org/1999/02/22-rdf-syntax-ns#"
   xmlns:svg="http://www.w3.org/2000/svg"
   xmlns="http://www.w3.org/2000/svg"
   xmlns:sodipodi="http://sodipodi.sourceforge.net/DTD/sodipodi-0.dtd"
   xmlns:inkscape="http://www.inkscape.org/namespaces/inkscape"
   id="Layer_1"
   data-name="Layer 1"
   viewBox="0 0 472.61 472.61"
   version="1.1"
   sodipodi:docname="linkedin.svg"
   inkscape:version="0.92.3 (2405546, 2018-03-11)">
  <metadata
     id="metadata11">
    <rdf:RDF>
      <cc:Work
         rdf:about="">
        <dc:format>image/svg+xml</dc:format>
        <dc:type
           rdf:resource="http://purl.org/dc/dcmitype/StillImage" />
        <dc:title></dc:title>
      </cc:Work>
    </rdf:RDF>
  </metadata>
  <sodipodi:namedview
     pagecolor="#ffffff"
     bordercolor="#666666"
     borderopacity="1"
     objecttolerance="10"
     gridtolerance="10"
     guidetolerance="10"
     inkscape:pageopacity="0"
     inkscape:pageshadow="2"
     inkscape:window-width="1600"
     inkscape:window-height="832"
     id="namedview9"
     showgrid="false"
     inkscape:zoom="0.70619414"
     inkscape:cx="156.2814"
     inkscape:cy="184.51885"
     inkscape:window-x="166"
     inkscape:window-y="1080"
     inkscape:window-maximized="1"
     inkscape:current-layer="Layer_1" />
  <defs
     id="defs4">
    <style
       id="style2">.cls-1{fill:#fff;}</style>
    <style
       id="style835">.cls-1{fill:#fff;}</style>
  </defs>
  <path
     style="fill:#ffffff"
     d="M 15.750303,3.0267578e-4 C 7.0518127,3.0267578e-4 2.9267579e-4,7.0518127 3.0267579e-4,15.750303 V 456.84991 c -1e-5,8.7001 7.04990002421,15.75425 15.75000032421,15.75977 H 456.84991 c 8.70172,-0.006 15.75425,-7.05805 15.75977,-15.75977 V 15.750303 C 472.60368,7.0501927 465.55002,3.0267578e-4 456.84991,3.0267578e-4 Z M 107.81475,67.515926 c 22.36458,0 40.61524,18.250651 40.61524,40.615234 0,22.47007 -18.14517,40.61523 -40.61524,40.61523 -22.470087,0 -40.615227,-18.25065 -40.615227,-40.61523 0,-22.364583 18.14514,-40.615234 40.615227,-40.615234 z M 321.33233,173.95928 c 70.8915,0 84.07813,46.73391 84.07813,107.49805 V 405.09405 H 335.36358 V 295.38116 c 0,-26.16234 -0.52681,-59.81445 -36.39453,-59.81445 -36.50068,0 -42.0918,28.48338 -42.0918,57.91601 V 405.09405 H 186.82842 V 179.54913 h 67.19922 v 30.80469 h 0.94922 c 9.3889,-17.72287 32.28114,-36.39454 66.35547,-36.39454 z m -248.541017,5.58985 h 70.152347 v 225.54492 h -0.10547 -70.046877 z"
     id="path839"
     inkscape:connector-curvature="0" />
</svg>
