<?xml version="1.0" encoding="UTF-8" standalone="no"?>
<svg
   xmlns:dc="http://purl.org/dc/elements/1.1/"
   xmlns:cc="http://creativecommons.org/ns#"
   xmlns:rdf="http://www.w3.org/1999/02/22-rdf-syntax-ns#"
   xmlns:svg="http://www.w3.org/2000/svg"
   xmlns="http://www.w3.org/2000/svg"
   xmlns:sodipodi="http://sodipodi.sourceforge.net/DTD/sodipodi-0.dtd"
   xmlns:inkscape="http://www.inkscape.org/namespaces/inkscape"
   viewBox="0 0 19.32 19.309999"
   width="38.639999"
   height="38.619999"
   version="1.1"
   id="svg8"
   sodipodi:docname="modelling.svg"
   style="fill:#ffffff"
   inkscape:version="0.92.3 (2405546, 2018-03-11)">
  <metadata
     id="metadata14">
    <rdf:RDF>
      <cc:Work
         rdf:about="">
        <dc:format>image/svg+xml</dc:format>
        <dc:type
           rdf:resource="http://purl.org/dc/dcmitype/StillImage" />
        <dc:title></dc:title>
      </cc:Work>
    </rdf:RDF>
  </metadata>
  <defs
     id="defs12" />
  <sodipodi:namedview
     pagecolor="#ffffff"
     bordercolor="#666666"
     borderopacity="1"
     objecttolerance="10"
     gridtolerance="10"
     guidetolerance="10"
     inkscape:pageopacity="0"
     inkscape:pageshadow="2"
     inkscape:window-width="1920"
     inkscape:window-height="1052"
     id="namedview10"
     showgrid="false"
     inkscape:zoom="9.8333333"
     inkscape:cx="24"
     inkscape:cy="24"
     inkscape:window-x="0"
     inkscape:window-y="0"
     inkscape:window-maximized="1"
     inkscape:current-layer="svg8" />
  <g
     id="g823"
     transform="translate(-3.0000002,-1.6900003)">
    <path
       id="path4"
       d="M 5,5 H 9 V 9 H 5 Z m 10,10 h 4 v 4 H 15 Z M 5,15 h 4 v 4 H 5 Z m 11.66,-10.48 -2.83,2.82 2.83,2.83 2.83,-2.83 z"
       inkscape:connector-curvature="0"
       style="opacity:0.3" />
    <path
       id="path6"
       d="M 16.66,1.69 11,7.34 16.66,13 22.32,7.34 Z m -2.83,5.65 2.83,-2.83 2.83,2.83 -2.83,2.83 z M 3,3 v 8 h 8 V 3 Z M 9,9 H 5 V 5 H 9 Z M 3,21 h 8 V 13 H 3 Z m 2,-6 h 4 v 4 H 5 Z m 8,-2 v 8 h 8 v -8 z m 6,6 h -4 v -4 h 4 z"
       inkscape:connector-curvature="0" />
  </g>
</svg>
