<?xml version="1.0" encoding="UTF-8" standalone="no"?>
<svg
   xmlns:dc="http://purl.org/dc/elements/1.1/"
   xmlns:cc="http://creativecommons.org/ns#"
   xmlns:rdf="http://www.w3.org/1999/02/22-rdf-syntax-ns#"
   xmlns:svg="http://www.w3.org/2000/svg"
   xmlns="http://www.w3.org/2000/svg"
   xmlns:sodipodi="http://sodipodi.sourceforge.net/DTD/sodipodi-0.dtd"
   xmlns:inkscape="http://www.inkscape.org/namespaces/inkscape"
   id="Signature"
   viewBox="0 0 306.88901 60.520001"
   version="1.1"
   sodipodi:docname="signature_white.svg"
   inkscape:version="0.92.3 (2405546, 2018-03-11)"
   width="306.88901"
   height="60.52">
  <metadata
     id="metadata35">
    <rdf:RDF>
      <cc:Work
         rdf:about="">
        <dc:format>image/svg+xml</dc:format>
        <dc:type
           rdf:resource="http://purl.org/dc/dcmitype/StillImage" />
        <dc:title></dc:title>
      </cc:Work>
    </rdf:RDF>
  </metadata>
  <sodipodi:namedview
     pagecolor="#ffffff"
     bordercolor="#666666"
     borderopacity="1"
     objecttolerance="10"
     gridtolerance="10"
     guidetolerance="10"
     inkscape:pageopacity="0"
     inkscape:pageshadow="2"
     inkscape:window-width="1920"
     inkscape:window-height="1052"
     id="namedview33"
     showgrid="false"
     inkscape:zoom="1.7506729"
     inkscape:cx="94.249481"
     inkscape:cy="67.889999"
     inkscape:window-x="0"
     inkscape:window-y="0"
     inkscape:window-maximized="1"
     inkscape:current-layer="Signature" />
  <defs
     id="defs4">
    <style
       id="style2">.cls-1{fill:#9088ff;}.cls-2{fill:#fff;}</style>
  </defs>
  <g
     id="g859"
     transform="translate(-37.81077,-37.640078)">
    <path
       id="rect6"
       d="m 37.810547,37.660156 v 60.5 H 315.83984 v -60.5 z M 209.57031,53 h 3.84961 v 15 l 6.91992,-7.919922 h 4.71094 L 217.19922,68.820312 225.33984,78 h -4.60937 l -7.31055,-8.240234 V 78 h -3.84961 z M 90.785156,59.599609 A 9.4405773,9.4405773 0 1 1 90.679688,78.480469 9.12,9.12 0 0 1 84,75.769531 9.46,9.46 0 0 1 84,62.429688 9.44,9.44 0 0 1 90.785156,59.599609 Z m 168.330074,0 A 9.4406058,9.4406058 0 1 1 259,78.480469 a 9.12,9.12 0 0 1 -6.66992,-2.710938 9.46,9.46 0 0 1 0,-13.339843 9.44,9.44 0 0 1 6.78515,-2.830079 z M 69.738281,59.705078 a 6.08,6.08 0 0 1 0.392578,0.01563 6.58,6.58 0 0 1 5,2 A 7.44,7.44 0 0 1 77,67.070312 V 78 H 73.130859 V 67.460938 a 4.17,4.17 0 0 0 -1.070312,-3.070313 4,4 0 0 0 -2.929688,-1.070313 4.38,4.38 0 0 0 -3.28125,1.269532 5.31,5.31 0 0 0 -1.25,3.871094 V 78 H 60.75 V 60.179688 h 3.849609 v 2.28125 a 6.08,6.08 0 0 1 5.138672,-2.75586 z m 168.371099,0.002 a 6.08,6.08 0 0 1 0.35156,0.01367 6.56,6.56 0 0 1 5,2 7.44,7.44 0 0 1 1.88867,5.388672 V 78 H 241.5 V 67.460938 a 4.17,4.17 0 0 0 -1.07031,-3.070313 4,4 0 0 0 -2.92969,-1.070313 4.38,4.38 0 0 0 -3.2793,1.269532 5.31,5.31 0 0 0 -1.25,3.871094 V 78 h -3.85156 V 60.179688 h 3.85156 v 2.28125 a 6.08,6.08 0 0 1 5.13868,-2.753907 z m -70.81641,0.01758 a 9.59,9.59 0 0 1 6.39648,2.705079 A 9.38,9.38 0 0 1 167,78.480469 a 9.14,9.14 0 0 1 -6.66992,-2.710938 9.49,9.49 0 0 1 0,-13.339843 9.59,9.59 0 0 1 6.96289,-2.705079 z m -64.88281,0.435547 h 4.08007 l 3.44922,12.310547 3.74024,-12.310547 h 3.70117 l 3.69922,12.300782 3.48047,-12.28125 h 4.07031 L 123,78 h -3.7793 L 115.43945,65.820312 111.68945,78 h -4.08984 z m 168.32031,0 h 4.07031 L 278.25,72.470703 282,60.179688 h 3.68945 l 3.71094,12.300781 3.5,-12.300781 H 297 L 291.35938,78 h -3.7793 L 283.80078,65.839844 280,78 h -4.08984 z m -133.17969,0.01953 h 4.20899 l 5.32031,12.951171 4.56054,-12.951171 h 4.09961 l -6.84961,18.410156 c -1.70665,4.606666 -4.60783,6.79388 -8.70117,6.560547 v -3.59961 a 4.17,4.17 0 0 0 2.91993,-0.771484 6.14,6.14 0 0 0 1.82031,-2.728516 l 0.17969,-0.351562 z m 43.11914,0 h 3.84961 v 10.560546 a 4.18,4.18 0 0 0 1.07031,3.070313 4,4 0 0 0 2.92969,1.070312 4.38,4.38 0 0 0 3.28125,-1.271484 5.31,5.31 0 0 0 1.25,-3.869141 l 0.0391,-9.560546 h 3.84961 V 78 h -3.84961 v -2.269531 a 6.07,6.07 0 0 1 -5.52929,2.75 6.56,6.56 0 0 1 -5,-2 7.44,7.44 0 0 1 -1.89063,-5.390625 z m -90.191404,3.285156 a 5.68,5.68 0 0 0 -3.798828,1.605468 5.85,5.85 0 0 0 0,8.060547 5.68,5.68 0 0 0 7.919921,0 5.88,5.88 0 0 0 0,-8.060547 5.68,5.68 0 0 0 -4.121093,-1.605468 z m 76.320314,0 A 5.68,5.68 0 0 0 163,65.070312 a 5.88,5.88 0 0 0 0,8.060547 5.68,5.68 0 0 0 7.91992,0 5.85,5.85 0 0 0 0,-8.060547 5.68,5.68 0 0 0 -4.12109,-1.605468 z m 92,0 A 5.68,5.68 0 0 0 255,65.070312 a 5.88,5.88 0 0 0 0,8.060547 5.68,5.68 0 0 0 7.91992,0 5.88,5.88 0 0 0 0,-8.060547 5.68,5.68 0 0 0 -4.12109,-1.605468 z"
       style="fill:#ffffff"
       inkscape:connector-curvature="0" />
    <path
       style="fill:#ffffff"
       id="path28"
       d="m 331.46,37.66 v 2.14 h -3.16 v 7.47 H 326 V 39.8 h -3.13 v -2.14 z"
       class="cls-1"
       inkscape:connector-curvature="0" />
    <path
       style="fill:#ffffff"
       id="path30"
       d="m 344.7,37.66 v 9.61 h -2.29 V 41.65 L 339,46.73 v 0 l -3.41,-5 v 5.59 h -2.31 v -9.66 h 2.37 L 339,43 l 3.33,-5.36 z"
       class="cls-1"
       inkscape:connector-curvature="0" />
  </g>
</svg>
