<?xml version="1.0" encoding="UTF-8" standalone="no"?>
<!-- Generator: Adobe Illustrator 24.2.3, SVG Export Plug-In . SVG Version: 6.00 Build 0)  -->

<svg
   xmlns:dc="http://purl.org/dc/elements/1.1/"
   xmlns:cc="http://creativecommons.org/ns#"
   xmlns:rdf="http://www.w3.org/1999/02/22-rdf-syntax-ns#"
   xmlns:svg="http://www.w3.org/2000/svg"
   xmlns="http://www.w3.org/2000/svg"
   xmlns:sodipodi="http://sodipodi.sourceforge.net/DTD/sodipodi-0.dtd"
   xmlns:inkscape="http://www.inkscape.org/namespaces/inkscape"
   version="1.1"
   x="0px"
   y="0px"
   viewBox="0 0 131.95 181.61"
   xml:space="preserve"
   id="svg219"
   sodipodi:docname="surprised.svg"
   width="131.95"
   height="181.61"
   inkscape:version="0.92.3 (2405546, 2018-03-11)"><metadata
   id="metadata225"><rdf:RDF><cc:Work
       rdf:about=""><dc:format>image/svg+xml</dc:format><dc:type
         rdf:resource="http://purl.org/dc/dcmitype/StillImage" /><dc:title></dc:title></cc:Work></rdf:RDF></metadata><defs
   id="defs223" /><sodipodi:namedview
   pagecolor="#ffffff"
   bordercolor="#666666"
   borderopacity="1"
   objecttolerance="10"
   gridtolerance="10"
   guidetolerance="10"
   inkscape:pageopacity="0"
   inkscape:pageshadow="2"
   inkscape:window-width="1920"
   inkscape:window-height="1052"
   id="namedview221"
   showgrid="false"
   inkscape:zoom="3.5126904"
   inkscape:cx="98.294998"
   inkscape:cy="123.125"
   inkscape:window-x="0"
   inkscape:window-y="0"
   inkscape:window-maximized="1"
   inkscape:current-layer="svg219" />
<style
   type="text/css"
   id="style181">
	.st0{fill:#FFFFFF;}
	.st1{fill:#141923;}
	.st2{fill:#FF5534;}
	.st3{fill:#9088FF;}
	.st4{display:none;}
	
		.st5{display:inline;fill:none;stroke:#9088FF;stroke-width:0.2699;stroke-miterlimit:10;stroke-dasharray:2.159,2.159,2.159,2.159,2.159,2.159;}
	
		.st6{display:inline;fill:none;stroke:#9088FF;stroke-width:0.193;stroke-miterlimit:10;stroke-dasharray:1.544,1.544,1.544,1.544,1.544,1.544;}
	
		.st7{display:inline;fill:none;stroke:#9088FF;stroke-width:0.2041;stroke-miterlimit:10;stroke-dasharray:1.6325,1.6325,1.6325,1.6325,1.6325,1.6325;}
	.st8{display:inline;fill:none;stroke:#9088FF;stroke-width:0.2662;stroke-miterlimit:10;}
	.st9{display:inline;opacity:0.2;fill:#9088FF;}
</style>
<g
   id="Icons_1_"
   transform="translate(-32.320002,-32.320046)">
	<g
   id="g187">
		<path
   class="st3"
   d="M 63.87,64.5 H 32.95 c -0.35,0 -0.63,-0.28 -0.63,-0.63 V 32.95 c 0,-0.35 0.28,-0.63 0.63,-0.63 h 30.92 c 0.35,0 0.63,0.28 0.63,0.63 v 30.92 c 0,0.35 -0.28,0.63 -0.63,0.63 z"
   id="path183"
   inkscape:connector-curvature="0"
   style="fill:#9088ff" />
		<path
   class="st3"
   d="m 163.64,64.5 h -30.92 c -0.35,0 -0.63,-0.28 -0.63,-0.63 V 32.95 c 0,-0.35 0.28,-0.63 0.63,-0.63 h 30.92 c 0.35,0 0.63,0.28 0.63,0.63 v 30.92 c 0,0.35 -0.28,0.63 -0.63,0.63 z"
   id="path185"
   inkscape:connector-curvature="0"
   style="fill:#9088ff" />
	</g>
	<path
   class="st2"
   d="m 163.52,148.72 c 0,-0.1 0.01,-0.19 0.01,-0.29 h -0.01 c -0.22,-36 -29.42,-65.14 -65.49,-65.2 -36.06,-0.06 -65.37,28.99 -65.7,64.99 h -0.01 c 0,0.08 0.01,0.16 0.01,0.25 0,0.09 -0.01,0.18 -0.01,0.26 h 0.01 c 0.22,36 29.43,65.14 65.49,65.2 36.06,0.06 65.37,-28.99 65.7,-64.99 h 0.01 c 0,-0.07 -0.01,-0.15 -0.01,-0.22 z m -65.64,31.8 c -16.71,-0.03 -32.01,-15.31 -32.13,-32 0.19,-16.68 15.53,-31.9 32.23,-31.87 16.71,0.03 32.01,15.31 32.13,32 -0.2,16.67 -15.54,31.89 -32.23,31.87 z"
   id="path189"
   inkscape:connector-curvature="0"
   style="fill:#ff5534" />
</g>
<g
   id="Guides"
   class="st4"
   style="display:none"
   transform="translate(0,-64.640001)">
	<line
   class="st5"
   x1="32.310001"
   y1="0.13"
   x2="32.310001"
   y2="246.11"
   id="line192"
   style="display:inline;fill:none;stroke:#9088ff;stroke-width:0.26989999;stroke-miterlimit:10;stroke-dasharray:2.159, 2.159, 2.159, 2.159, 2.159, 2.159" />
	<line
   class="st5"
   x1="164.27"
   y1="0.13"
   x2="164.27"
   y2="246.11"
   id="line194"
   style="display:inline;fill:none;stroke:#9088ff;stroke-width:0.26989999;stroke-miterlimit:10;stroke-dasharray:2.159, 2.159, 2.159, 2.159, 2.159, 2.159" />
	<line
   class="st5"
   x1="132.09"
   y1="0.13"
   x2="132.09"
   y2="246.11"
   id="line196"
   style="display:inline;fill:none;stroke:#9088ff;stroke-width:0.26989999;stroke-miterlimit:10;stroke-dasharray:2.159, 2.159, 2.159, 2.159, 2.159, 2.159" />
	<line
   class="st5"
   x1="64.68"
   y1="0.13"
   x2="64.68"
   y2="246.11"
   id="line198"
   style="display:inline;fill:none;stroke:#9088ff;stroke-width:0.26989999;stroke-miterlimit:10;stroke-dasharray:2.159, 2.159, 2.159, 2.159, 2.159, 2.159" />
	<line
   class="st6"
   x1="196.45"
   y1="32.310001"
   x2="0.13"
   y2="32.310001"
   id="line200"
   style="display:inline;fill:none;stroke:#9088ff;stroke-width:0.193;stroke-miterlimit:10;stroke-dasharray:1.544, 1.544, 1.544, 1.544, 1.544, 1.544" />
	<line
   class="st6"
   x1="196.45"
   y1="64.5"
   x2="0.13"
   y2="64.5"
   id="line202"
   style="display:inline;fill:none;stroke:#9088ff;stroke-width:0.193;stroke-miterlimit:10;stroke-dasharray:1.544, 1.544, 1.544, 1.544, 1.544, 1.544" />
	<line
   class="st6"
   x1="196.45"
   y1="83.230003"
   x2="0.13"
   y2="83.230003"
   id="line204"
   style="display:inline;fill:none;stroke:#9088ff;stroke-width:0.193;stroke-miterlimit:10;stroke-dasharray:1.544, 1.544, 1.544, 1.544, 1.544, 1.544" />
	<line
   class="st7"
   x1="196.45"
   y1="213.98"
   x2="0.13"
   y2="213.98"
   id="line206"
   style="display:inline;fill:none;stroke:#9088ff;stroke-width:0.2041;stroke-miterlimit:10;stroke-dasharray:1.6325, 1.6325, 1.6325, 1.6325, 1.6325, 1.6325" />
	<rect
   x="0.13"
   y="0.13"
   class="st8"
   width="196.32001"
   height="245.98"
   id="rect208"
   style="display:inline;fill:none;stroke:#9088ff;stroke-width:0.26620001;stroke-miterlimit:10" />
	<path
   class="st9"
   d="M 31.68,32.32 H 0.76 c -0.35,0 -0.63,-0.28 -0.63,-0.63 V 0.76 c 0,-0.35 0.28,-0.63 0.63,-0.63 h 30.92 c 0.35,0 0.63,0.28 0.63,0.63 v 30.92 c 0.01,0.35 -0.28,0.64 -0.63,0.64 z"
   id="path210"
   inkscape:connector-curvature="0"
   style="display:inline;opacity:0.2;fill:#9088ff" />
	<path
   class="st9"
   d="M 195.82,32.32 H 164.9 c -0.35,0 -0.63,-0.28 -0.63,-0.63 V 0.76 c 0,-0.35 0.28,-0.63 0.63,-0.63 h 30.92 c 0.35,0 0.63,0.28 0.63,0.63 v 30.92 c 0,0.35 -0.28,0.64 -0.63,0.64 z"
   id="path212"
   inkscape:connector-curvature="0"
   style="display:inline;opacity:0.2;fill:#9088ff" />
	<path
   class="st9"
   d="M 31.68,246.11 H 0.76 c -0.35,0 -0.63,-0.28 -0.63,-0.63 v -30.92 c 0,-0.35 0.28,-0.63 0.63,-0.63 h 30.92 c 0.35,0 0.63,0.28 0.63,0.63 v 30.92 c 0.01,0.35 -0.28,0.63 -0.63,0.63 z"
   id="path214"
   inkscape:connector-curvature="0"
   style="display:inline;opacity:0.2;fill:#9088ff" />
	<path
   class="st9"
   d="M 195.82,246.11 H 164.9 c -0.35,0 -0.63,-0.28 -0.63,-0.63 v -30.92 c 0,-0.35 0.28,-0.63 0.63,-0.63 h 30.92 c 0.35,0 0.63,0.28 0.63,0.63 v 30.92 c 0,0.35 -0.28,0.63 -0.63,0.63 z"
   id="path216"
   inkscape:connector-curvature="0"
   style="display:inline;opacity:0.2;fill:#9088ff" />
</g>
</svg>