<svg id="Layer_1" data-name="Layer 1" xmlns="http://www.w3.org/2000/svg" viewBox="0 0 472.61 472.61"><defs><style>.cls-1{fill:#fff;}</style></defs><path class="cls-1" d="M0,15.75v441.1a15.76,15.76,0,0,0,15.75,15.76h441.1a15.77,15.77,0,0,0,15.76-15.76V15.75A15.76,15.76,0,0,0,456.85,0H15.75A15.75,15.75,0,0,0,0,15.75ZM362.31,171v9c0,85.51-65.27,184.55-184.56,184.55-33.29,0-64.68-9.64-92.35-25.31,1.9-5.53-.45,1.32,1.44-4.2,31.74,2.2,64.22-9.63,88.68-26.76-29.25,0-51.75-20.24-60.75-45,4.49,0,9,2.26,11.26,2.26,6.75,0,11.26,0,18-2.26-29.25-6.75-51.75-31.51-51.75-63,9,4.48,18,6.75,29.25,9-18-15.75-29.25-33.76-29.25-56.26,0-11.27,2.26-22.5,9-31.51,31.5,38.26,78.76,65.27,132.77,67.5,0-10.52-12.41-21.19,21-60.46,10.7-12.59,26-20.68,42.57-20.56,17.84.13,35.59,6.87,46.75,20.24,15.75-2.26,29.25-9,40.51-15.75-4.49,15.75-15.75,27-29.25,36,13.5-2.25,24.76-4.49,38.26-11.26A151.93,151.93,0,0,1,362.31,171Z"/></svg>